{"title":"Kubera Rasi 2016 Tamil Movies HDRip XviD AAC with Sample ~ ☻rDX☻","uid":13508152,"size":740038413,"categoryP":"video","categoryS":"movies","magnet":"?xt=urn:btih:0f3cffc4cb2f744925557ea2085d4b9834386994&amp;dn=Kubera+Rasi+2016+Tamil+Movies+HDRip+XviD+AAC+with+Sample+%7E+%E2%98%BBrDX%E2%98%BB&amp;tr=udp%3A%2F%2Ftracker.leechers-paradise.org%3A6969&amp;tr=udp%3A%2F%2Fzer0day.ch%3A1337&amp;tr=udp%3A%2F%2Fopen.demonii.com%3A1337&amp;tr=udp%3A%2F%2Ftracker.coppersurfer.tk%3A6969&amp;tr=udp%3A%2F%2Fexodus.desync.com%3A6969","seeders":1,"leechers":2,"uploader":"basicssom","files":2,"time":1455260086,"description":"----------------------------------------------------------------\r\nKubera Rasi 2016 Tamil Movies HDRip XviD AAC New Source with Sample ~ ☻rDX☻\r\n\r\nSCREEN SHOTS &amp; POSTER:\r\n  \nhttp://mobileshosting.com/2016/2/KuberaRasi/11.html  \nhttp://mobileshosting.com/2016/2/KuberaRasi/1.html  \nhttp://mobileshosting.com/2016/2/KuberaRasi/2.html  \nhttp://mobileshosting.com/2016/2/KuberaRasi/3.html  \nhttp://mobileshosting.com/2016/2/KuberaRasi/4.html  \nhttp://mobileshosting.com/2016/2/KuberaRasi/5.html  \nhttp://mobileshosting.com/2016/2/KuberaRasi/6.html  \nhttp://mobileshosting.com/2016/2/KuberaRasi/7.html  \nhttp://mobileshosting.com/2016/2/KuberaRasi/8.html  \nhttp://mobileshosting.com/2016/2/KuberaRasi/9.html  \nhttp://mobileshosting.com/2016/2/KuberaRasi/10.html\r\n\r\nFormat                                   : Matroska\r\nFormat version                           : Version 4 / Version 2\r\nFile size                                : 698 MiB\r\nDuration                                 : 2h 4mn\r\nOverall bit rate                         : 785 Kbps\r\nMovie name                               : Kubera Rasi 2016 Tamil Movies HDRip XviD AAC New Source ☻rDX☻\r\n\r\nVideo\r\nID                                       : 1\r\nFormat                                   : AVC\r\nFormat/Info                              : Advanced Video Codec\r\nFormat profile                           :   \r\nFormat settings, CABAC                   : Yes\r\nFormat settings, ReFrames                : 4 frames\r\nCodec ID                                 : V_MPEG4/ISO/AVC\r\nDuration                                 : 2h 4mn\r\nBit rate                                 : 687 Kbps\r\nWidth                                    : 640 pixels\r\nHeight                                   : 272 pixels\r\nDisplay aspect ratio                     : 2.35:1\r\nFrame rate mode                          : Constant\r\nFrame rate                               : 25.000 fps\r\nColor space                              : YUV\r\nChroma subsampling                       : 4:2:0\r\nBit depth                                : 8 bits\r\nScan type                                : Progressive\r\nBits/(Pixel*Frame)                       : 0.158\r\nStream size                              : 599 MiB (86%)\r\nTitle                                    : ☻rDX☻\r\nWriting library                          : XviD\r\nLanguage                                 : Tamil\r\nDefault                                  : Yes\r\nForced                                   : Yes\r\n\r\nAudio\r\nID                                       : 2\r\nFormat                                   : MPEG Audio\r\nFormat version                           : Version 1\r\nFormat profile                           : Layer 3\r\nMode                                     : Joint stereo\r\nMode extension                           : MS Stereo\r\nCodec ID                                 : A_MPEG/L3\r\nCodec ID/Hint                            : MP3\r\nDuration                                 : 2h 4mn\r\nBit rate mode                            : Constant\r\nBit rate                                 : 96.0 Kbps\r\nChannel(s)                               : 2 channels\r\nSampling rate                            : 48.0 KHz\r\nCompression mode                         : Lossy\r\nStream size                              : 85.4 MiB (12%)\r\nTitle                                    : ☻rDX☻\r\nWriting library                          : LAME3.97\r\nLanguage                                 : Tamil\r\nDefault                                  : Yes\r\nForced                                   : Yes\r\n\r\nIMDB                                     \r\nna","torrent":{"xt":"urn:btih:0f3cffc4cb2f744925557ea2085d4b9834386994","amp;dn":"Kubera+Rasi+2016+Tamil+Movies+HDRip+XviD+AAC+with+Sample+%7E+%E2%98%BBrDX%E2%98%BB","amp;tr":["udp%3A%2F%2Ftracker.leechers-paradise.org%3A6969","udp%3A%2F%2Fzer0day.ch%3A1337","udp%3A%2F%2Fopen.demonii.com%3A1337","udp%3A%2F%2Ftracker.coppersurfer.tk%3A6969","udp%3A%2F%2Fexodus.desync.com%3A6969"],"infoHash":"0f3cffc4cb2f744925557ea2085d4b9834386994","infoHashBuffer":{"type":"Buffer","data":[15,60,255,196,203,47,116,73,37,85,126,162,8,93,75,152,52,56,105,148]},"announce":[],"urlList":[]}}